<?xml version="1.0" encoding="UTF-8" standalone="no"?>
<svg
   xmlns:dc="http://purl.org/dc/elements/1.1/"
   xmlns:cc="http://creativecommons.org/ns#"
   xmlns:rdf="http://www.w3.org/1999/02/22-rdf-syntax-ns#"
   xmlns:svg="http://www.w3.org/2000/svg"
   xmlns="http://www.w3.org/2000/svg"
   xmlns:xlink="http://www.w3.org/1999/xlink"
   version="1.0"
   id="svg2366"
   height="417"
   width="325">
  <defs
     id="defs2368" />
  <metadata
     id="metadata2371">
    <rdf:RDF>
      <cc:Work
         rdf:about="">
        <dc:format>image/svg+xml</dc:format>
        <dc:type
           rdf:resource="http://purl.org/dc/dcmitype/StillImage" />
        <dc:title></dc:title>
      </cc:Work>
    </rdf:RDF>
  </metadata>
  <g
     style="display:inline"
     transform="translate(-24.706847,134.10652)"
     id="layer1">
    <g
       style="stroke-width:0.76162267"
       transform="matrix(1.2917065,0,0,1.3346164,24.675518,-150.60253)"
       id="g5090">
      <path
         style="fill:#ffffff;fill-opacity:1;fill-rule:evenodd;stroke:none;stroke-width:0.76162267"
         d="m 37.921133,128.25062 6.785714,-26.78571 129.285713,-39.285719 20.71429,23.214285 12.14286,20.000004 3.21428,26.78571 -5,30 -0.35714,17.85714 7.14286,22.85715 v 23.21428 l -7.14286,12.85714 -5,4.28572 -47.14286,27.5 -8.92857,2.14286 -13.57142,2.85714 -7.50001,0.71429 h -7.14286 l -20.35714,-4.64286 -48.928572,-25.71429 -11.428571,-18.21428 4.642857,-37.85715 13.214286,-17.85714 -8.214286,-12.5 -4.642857,-20 z"
         id="path3364" />
      <g
         style="stroke-width:0.76162267"
         id="g2425"
         transform="matrix(0.5732005,0,0,0.5732005,-8.9311329,-0.16889)">
        <g
           style="stroke-width:0.76162267"
           transform="matrix(1.543286,0,0,1.543286,-594.72513,-605.25495)"
           id="g2743">
          <path
             style="fill:#eb9900;stroke-width:0.76162267"
             id="path2739"
             d="m 539.71875,439.96875 c -3.89825,0 -7.79753,0.22064 -8.625,0.65625 -0.70015,0.36858 -4.02306,1.06391 -7.40625,1.53125 -9.70992,1.3413 -17.96248,4.06008 -29.03125,9.53125 -12.39579,6.12712 -18.13623,10.26672 -28.25,20.5 -8.66687,8.76929 -13.83558,16.03145 -19.09375,26.84375 -7.3263,15.06502 -10.22357,27.75648 -10.21875,44.625 0.004,14.98026 1.90906,25.32276 7,38.1875 l 2.65625,6.6875 -3.6875,7.65625 c -2.45562,5.10532 -4.69236,8.6021 -6.75,10.5625 -3.44289,3.28024 -8.39686,12.89945 -9.1875,17.84375 -0.27185,1.70004 -0.77475,3.25229 -1.125,3.46875 -0.83669,0.5171 -0.83777,9.63848 0,10.15625 0.35609,0.22007 0.87791,2.30122 1.15625,4.625 1.78089,14.86773 5.00078,22.32366 10.34375,23.9375 1.63252,0.49309 19.375,18.32088 19.375,19.46875 0,1.14225 4.10639,6.87958 6.71875,9.375 7.95103,7.59514 13.24446,10.7881 20.40625,12.3125 1.41123,0.30039 3.3509,1.15239 4.3125,1.90625 1.54207,1.20896 3.14785,1.37497 13.5,1.375 10.85501,0 11.85384,-0.1058 13.28125,-1.5 0.84885,-0.82912 3.25812,-2.83798 5.375,-4.4375 2.11685,-1.59952 3.87498,-3.30893 3.875,-3.8125 0,-0.50358 1.02555,-2.16407 2.28125,-3.6875 2.05318,-2.49085 2.30943,-3.39065 2.625,-8.875 l 0.34375,-6.09375 -4.40625,-9.09375 c -2.42173,-4.99619 -4.96948,-11.36912 -5.65625,-14.1875 -0.6868,-2.81839 -1.65226,-6.13249 -2.15625,-7.34375 -0.50402,-1.21124 -1.1448,-3.29235 -1.4375,-4.625 -0.56088,-2.55366 -4.87725,-7.46877 -6.5625,-7.46875 -0.54528,0 -1.93883,-0.49143 -3.09375,-1.09375 -2.33241,-1.21643 -7.74688,-1.45928 -9.65625,-0.4375 -0.67911,0.36342 -2.78904,0.90286 -4.6875,1.1875 -3.18577,0.47769 -3.61112,0.33286 -5.5,-1.65625 -2.67644,-2.81846 -6.6624,-4.58488 -12.03125,-5.34375 -8.21561,-1.16127 -14.13892,2.12863 -17.46875,9.65625 -0.82142,1.85696 -1.9288,3.70922 -2.4375,4.125 -0.79884,0.65292 -6.51915,1.28339 -9.09375,1 -1.6432,-0.18086 -2.76085,-5.54541 -2.75,-13.28125 0.0181,-12.89142 3.81523,-24.37497 12.3125,-37.34375 2.67612,-4.08438 4.84375,-7.75619 4.84375,-8.15625 0,-0.40002 -1.84681,-2.94532 -4.09375,-5.65625 -5.19465,-6.26729 -9.35326,-14.89191 -11.6875,-24.09375 -1.46843,-5.78874 -1.86659,-9.10332 -1.90625,-16.75 -0.0563,-10.86042 -0.0404,-10.86679 3.84375,-22.78125 6.30299,-19.33412 18.59978,-32.89299 34.59375,-38.1875 8.42541,-2.78909 18.88072,-2.83317 27,-0.125 6.57382,2.19269 15.50891,8.07005 19.34375,12.75 1.45508,1.77573 2.98574,3.25001 3.40625,3.25 0.42048,0 2.61439,-1.68394 4.875,-3.75 6.68903,-6.1134 13.12449,-10.01957 20.65625,-12.53125 6.33519,-2.11266 7.82049,-2.34376 16.15625,-2.34375 8.34011,0 9.79118,0.21895 16.1875,2.34375 14.78233,4.91055 28.18422,16.37244 34.9375,29.84375 2.61213,5.21062 5.31526,15.03423 6.1875,22.46875 2.0387,17.3763 -4.28876,36.88955 -16.1875,49.84375 -2.4641,2.68268 -4.49999,5.1038 -4.5,5.375 0,0.27122 1.43917,2.3684 3.1875,4.65625 7.56577,9.90052 11.88486,18.02153 15.0625,28.375 4.2996,14.00913 4.7704,23.99851 1.625,34.0625 -0.81693,2.61381 -1.21081,5.00791 -0.875,5.34375 0.68977,0.68977 4.14082,-3.7379 6.75,-8.65625 2.35585,-4.44082 3.88079,-4.29162 5.46875,0.5625 1.58001,4.82985 3.63459,9.02216 5.9375,12.09375 1.32031,1.76102 2.37553,2.37501 4,2.375 1.87514,0 2.38715,-0.43552 3.59375,-3.09375 0.77785,-1.71364 1.42861,-4.00869 1.4375,-5.09375 0.009,-1.08503 0.34676,-2.1883 0.75,-2.4375 0.43375,-0.26808 0.71873,-4.76176 0.71875,-11 0,-6.23823 -0.28503,-10.7319 -0.71875,-11 -0.40321,-0.2492 -0.74998,-2.20492 -0.75,-4.34375 0,-12.30274 -6.02275,-24.50958 -14.34375,-29.0625 -1.44951,-0.79311 -3.04481,-2.99195 -4.96875,-6.84375 l -2.84375,-5.6875 3.03125,-7.8125 c 5.28596,-13.60436 6.28036,-19.43458 6.28125,-37.15625 7.2e-4,-14.24444 -0.1634,-15.96184 -1.96875,-23.125 -3.32967,-13.21106 -9.15491,-26.09666 -16.59375,-36.625 -4.69333,-6.64252 -18.40471,-20.13784 -25.1875,-24.78125 -7.40949,-5.07244 -22.02028,-12.06048 -29.96875,-14.34375 -3.47138,-0.99718 -9.08558,-2.1889 -12.46875,-2.65625 -3.38318,-0.46735 -6.73734,-1.16268 -7.4375,-1.53125 -0.82748,-0.43561 -4.72675,-0.65625 -8.625,-0.65625 z m 20.4375,91.71875 c -1.55334,-0.0276 -3.19163,0.43585 -5.09375,1.40625 -3.70975,1.89257 -5.80893,5.28324 -5.8125,9.375 -0.003,3.79757 1.3757,6.64238 4.4375,9.21875 4.41663,3.71635 12.07143,2.01203 15.375,-3.40625 3.0307,-4.97074 1.20757,-11.25899 -4.34375,-15 -1.53034,-1.0313 -3.00916,-1.56619 -4.5625,-1.59375 z m -59.375,0.65625 c -1.92659,0.002 -4.17042,0.58188 -5.625,1.46875 -2.57811,1.57183 -5.24314,6.4142 -5.25,9.53125 -0.006,2.94608 3.0489,7.5172 6.21875,9.3125 3.60995,2.04456 4.76672,2.07611 8.46875,0.1875 3.98071,-2.03081 5.80906,-5.22178 5.8125,-10.15625 0.003,-3.68232 -0.22967,-4.16716 -3.21875,-7.15625 -2.80842,-2.80842 -3.58938,-3.1899 -6.40625,-3.1875 z m 28.8125,11 c -3.00164,0 -7.5507,2.59298 -18.28125,10.46875 -9.52276,6.9893 -18.91549,12.75971 -28.78125,17.6875 -8.33945,4.1654 -9.78827,6.60078 -6.03125,10.0625 1.39132,1.28196 4.40642,2.47469 9.71875,3.84375 4.2337,1.09106 10.33682,2.79093 13.5625,3.75 13.29126,3.95175 16.99062,4.97589 19.78125,5.5 7.91692,1.48678 21.07045,-0.15318 33.5,-4.15625 1.89817,-0.61133 3.76115,-0.91237 4.125,-0.6875 0.5744,0.355 4.01259,-0.52275 13.03125,-3.28125 1.23826,-0.37874 3.05184,-0.67575 4.03125,-0.6875 0.97939,-0.0117 4.08378,-0.66738 6.90625,-1.4375 5.69816,-1.5548 9.44366,-4.69822 9.03125,-7.59375 -0.25047,-1.75844 -0.65517,-1.97702 -15.28125,-8.75 -12.52401,-5.79959 -18.07154,-8.90085 -28.59375,-15.96875 -10.07579,-6.76806 -13.88562,-8.75001 -16.71875,-8.75 z m 55.84375,89.5 c -1.31481,-0.0201 -2.7518,0.0824 -4.34375,0.28125 -3.5324,0.44135 -4.62076,0.9769 -8.0625,4.09375 -4.19381,3.79794 -4.71021,4.01897 -6.75,2.9375 -0.70015,-0.37122 -4.1038,-1.07308 -7.5625,-1.5625 -7.98791,-1.13024 -10.48694,-0.38337 -14.65625,4.3125 -4.53253,5.10499 -5.06251,6.87118 -5.0625,17.1875 0,4.97244 -0.28669,9.36695 -0.625,9.75 -0.3383,0.38305 -1.01996,2.67451 -1.53125,5.09375 -0.51128,2.41926 -1.26856,5.25508 -1.65625,6.3125 -0.66033,1.80109 -0.38195,4.08264 1.3125,11.1875 0.67145,2.81534 7.65332,10.183 13.125,13.84375 2.41926,1.61858 4.89521,3.55006 5.5,4.28125 0.73362,0.88694 2.30458,1.38489 4.75,1.53125 2.01605,0.12064 7.46806,0.0985 12.09375,-0.0625 l 8.40625,-0.3125 7.5,-3.8125 c 4.12506,-2.10559 8.52425,-4.69231 9.78125,-5.75 3.37863,-2.84293 8.66179,-9.57191 10.3125,-13.125 0.79547,-1.71225 1.85211,-3.76567 2.34375,-4.5625 3.87399,-6.27867 7.18666,-10.92888 10.53125,-14.78125 4.239,-4.88258 4.47637,-5.46287 2.8125,-6.84375 -0.60482,-0.50195 -1.09376,-1.70365 -1.09375,-2.65625 0,-0.95259 -0.99139,-3.38028 -2.21875,-5.375 -2.67456,-4.34671 -6.31175,-6.31582 -13.09375,-7.15625 -2.9737,-0.36851 -4.87135,-0.98979 -5.21875,-1.6875 -0.30115,-0.60482 -1.1875,-2.36945 -1.9375,-3.9375 -0.75,-1.56806 -2.92242,-4.1232 -4.84375,-5.65625 -2.99123,-2.38667 -5.86808,-3.4709 -9.8125,-3.53125 z" />
          <path
             id="path2620"
             d="m 646.72664,665.58025 c -2.07456,-2.19553 -4.22963,-6.47067 -6.19004,-12.27957 -2.13619,-6.32977 -3.35283,-6.30029 -7.29857,0.17687 -1.65585,2.71815 -3.62228,5.52229 -4.36987,6.23143 -1.30762,1.24038 -1.34058,1.21974 -0.86806,-0.54343 2.71658,-10.13667 3.33262,-19.26684 1.85821,-27.54022 -2.43618,-13.67024 -8.35041,-26.67449 -17.31532,-38.07303 -1.58562,-2.01605 -3.1216,-4.06133 -3.41332,-4.54507 -0.32306,-0.53575 1.46535,-3.06885 4.57553,-6.48075 6.40197,-7.02302 9.80408,-12.70069 12.44701,-20.77245 5.67658,-17.33686 4.6606,-35.87782 -2.79783,-51.05847 -3.8597,-7.85593 -6.7735,-11.51546 -14.16619,-17.79175 -7.89411,-6.70199 -13.34402,-9.97069 -20.70842,-12.42032 -5.27021,-1.75303 -6.9427,-1.95084 -16.49495,-1.95084 -9.57607,0 -11.2173,0.19524 -16.55243,1.96899 -6.94481,2.30891 -12.69468,5.873 -19.5678,12.12921 -2.7297,2.4847 -5.06615,4.51763 -5.19209,4.51763 -0.12595,0 -2.69762,-2.39176 -5.71483,-5.31504 -6.85159,-6.63828 -11.86702,-9.64051 -19.26665,-11.53302 -10.86742,-2.77942 -23.07338,-1.36923 -32.90607,3.80173 -6.27042,3.29759 -16.78662,13.91258 -21.22678,21.4262 -4.36864,7.39259 -8.48117,19.64664 -9.31906,27.76783 -0.76929,7.45632 0.18012,21.79741 1.85362,27.99933 1.90771,7.06988 6.38842,15.83685 10.69691,20.92959 2.20053,2.60107 4.25108,5.14034 4.55678,5.64282 0.34076,0.5601 -1.29738,3.69733 -4.23363,8.10792 -9.22282,13.85377 -12.45539,23.75218 -12.49603,38.26401 -0.0175,6.24558 0.30016,9.93631 0.99749,11.58949 0.99394,2.35639 0.94932,2.50289 -1.56282,5.13177 -3.65865,3.82864 -4.46435,5.75726 -4.41894,10.57768 0.0219,2.3282 -0.20172,4.3824 -0.497,4.56489 -0.98115,0.60639 -3.70881,-1.86587 -5.12812,-4.64794 -1.68755,-3.30788 -3.30779,-9.51714 -4.42305,-16.95051 -0.45356,-3.02305 -1.1389,-5.8107 -1.52297,-6.19477 -0.87714,-0.87714 -0.92487,-9.70894 -0.0554,-10.24631 0.35362,-0.21855 1.03582,-1.95763 1.51601,-3.86462 1.52461,-6.05478 5.66085,-13.97916 9.38922,-17.98828 3.60679,-3.87838 9.71425,-15.08632 9.70948,-17.81808 -10e-4,-0.79137 -1.0118,-3.91309 -2.24536,-6.93716 -8.82108,-21.62478 -9.69962,-45.85349 -2.46568,-68.00001 8.87818,-27.18033 26.47647,-48.13537 50.92872,-60.643 9.57903,-4.8998 20.6403,-8.68938 30.02816,-10.28763 3.8305,-0.65213 7.53738,-1.49477 8.23753,-1.87254 1.63347,-0.88134 15.57089,-0.89822 17.24795,-0.0209 0.70015,0.36627 4.90189,1.34252 9.3372,2.16945 4.4353,0.82693 10.20854,2.20003 12.8294,3.05135 5.98234,1.94319 19.5749,8.41982 25.03336,11.92798 22.16545,14.24576 37.45655,36.32339 44.41966,64.13407 1.77189,7.0769 1.97009,9.20368 1.99616,21.41955 0.0336,15.7357 -1.33377,23.66523 -6.26465,36.32998 -1.57865,4.05471 -2.87027,8.07063 -2.87027,8.92429 0,2.69464 5.85584,12.69419 7.88582,13.46599 3.54859,1.34917 5.82203,3.56222 8.15394,7.93735 3.48531,6.5391 5.22775,12.19432 5.72823,18.59139 0.24555,3.13867 0.7266,5.8798 1.06898,6.09141 0.8424,0.52063 0.79782,21.36348 -0.0468,21.88549 -0.36812,0.22751 -0.8827,1.6767 -1.14351,3.22042 -0.64443,3.81432 -2.96014,7.44909 -4.74581,7.44909 -0.79664,0 -2.14982,-0.74228 -3.00706,-1.6495 z M 522.13341,589.54559 c -1.49709,-0.78338 -10.20005,-2.65204 -20.8936,-4.48618 -10.08025,-1.72895 -18.46518,-3.24701 -18.63319,-3.37347 -0.90747,-0.68309 1.91898,-1.27925 15.81788,-3.33631 23.99114,-3.55072 33.16586,-3.36822 76.06598,1.51307 2.38615,0.2715 4.44566,0.82354 4.57668,1.22675 0.13474,0.41463 -7.64198,2.29927 -17.90095,4.3382 -29.9261,5.94768 -34.59478,6.44022 -39.0328,4.11794 z m 10.20728,-2.65643 c 2.67991,-2.255 2.94617,-4.49878 0.60362,-5.08672 -0.90858,-0.22804 -4.28646,-0.3168 -7.50642,-0.19725 -6.85827,0.25464 -7.77577,1.35718 -4.14816,4.98479 2.97048,2.97047 7.72338,3.09915 11.05096,0.29918 z m -35.60968,-34.33921 c -3.11408,-1.44277 -3.89515,-2.24192 -5.23475,-5.35591 -1.24772,-2.90041 -1.43232,-4.15597 -0.88936,-6.04917 1.47332,-5.13717 5.62206,-8.79918 9.97466,-8.80442 4.83429,-0.006 9.81849,5.52298 9.82097,10.89408 10e-4,2.50118 -2.49922,7.81914 -3.96359,8.43003 -0.44027,0.18367 -1.98111,0.83958 -3.4241,1.45756 -2.47138,1.05842 -2.83603,1.02522 -6.28383,-0.57217 z m 57.87205,-0.39228 c -2.76075,-1.68331 -5.34462,-6.32963 -5.34462,-9.61069 0,-3.81786 2.6629,-7.63307 6.62189,-9.48736 3.81437,-1.78655 5.46709,-1.662 9.29366,0.70035 2.55241,1.57575 5.3543,6.30577 5.32851,8.99534 -0.009,0.92328 -0.64386,3.06141 -1.41112,4.7514 -2.45212,5.4011 -9.53108,7.67354 -14.48832,4.65096 z"
             style="fill:#000000;stroke-width:0.76162267" />
          <path
             style="fill:#000000;stroke-width:0.76162267"
             d="m 534.1875,438.15625 c -26.94042,3.93744 -53.90881,14.9406 -72.11449,35.935 -25.89118,28.6715 -34.61501,72.1397 -19.57301,108.065 4.79487,8.004 -2.38155,15.7368 -6.69368,22.19064 -6.42498,8.08015 -11.25212,18.06674 -12.41777,28.33721 0.76395,8.54177 3.13515,17.04007 5.31329,25.33775 1.24543,4.75475 4.43416,10.9224 10.20441,10.1969 0.79887,-5.91915 0.0866,-12.66355 5.33779,-16.78536 4.46507,-4.30901 -1.08012,-10.50535 0.41639,-15.89934 -0.87175,-15.71687 6.14096,-30.15611 14.78074,-42.80645 4.07736,-4.38048 0.2015,-8.2781 -3.03492,-11.69635 -12.54037,-15.43721 -14.77302,-37.1247 -10.43935,-56.04481 4.14199,-17.05887 15.35782,-33.24659 31.51473,-40.66162 15.67264,-6.62884 35.42742,-3.387 46.87616,9.69938 4.17731,6.19627 8.47463,6.04008 12.82971,0.1008 9.91743,-9.90852 23.89557,-15.04825 37.87339,-13.49544 17.9664,-0.36394 33.76348,12.04024 43.81411,25.96419 14.49226,24.09034 11.11994,57.94238 -9.24824,77.72914 -4.72036,3.71177 -1.11155,7.79168 1.82033,11.21605 13.57844,17.64984 21.35646,41.43126 14.58416,63.30481 -2.99854,7.95316 1.383,5.82152 5.04221,1.21202 2.70606,-2.30385 6.42747,-13.68257 7.99207,-5.06748 2.35615,5.20183 4.54238,14.23695 11.46572,14.04296 6.67345,-3.66924 7.38813,-13.02378 7.66416,-19.96746 0.2076,-13.98252 -1.28551,-28.67888 -8.27523,-41.03479 -2.82514,-6.47828 -10.96269,-7.61397 -13.02297,-14.65102 -4.45193,-6.58825 2.16479,-13.87117 3.3382,-20.65886 4.53476,-15.21957 4.58568,-31.7002 2.43162,-47.31999 -6.29013,-32.53592 -27.82225,-62.41398 -58.47953,-75.93038 -12.47697,-6.20608 -26.29538,-9.09267 -39.93709,-11.37231 -3.35693,-0.19684 -6.70688,-0.0943 -10.06291,0.0598 z m 26.125,91.6875 c -10.12783,0.0662 -17.34223,13.05827 -9.90996,20.91577 5.91525,9.06784 21.03949,3.76968 21.73295,-6.53247 1.16762,-6.64479 -5.19757,-13.79154 -11.82299,-14.3833 z m -60.125,0.53125 c -9.89413,0.66016 -15.54362,13.74764 -8.46875,21.125 5.13956,6.09418 16.11031,5.11352 19.125,-2.625 4.49814,-7.67367 -1.98583,-18.39183 -10.65625,-18.5 z"
             id="path2655" />
        </g>
        <g
           style="stroke-width:0.76162267"
           transform="translate(-278.4233,-28.726213)"
           id="g2403">
          <path
             id="path2405"
             d="m 503.34978,58.992888 c -9.89709,-0.0012 -21.35603,3.28804 -30.96371,4.08086 -13.22017,1.578765 -25.79301,6.252752 -37.36229,12.747089 -8.02178,4.414165 -16.40639,8.095337 -25.07308,10.981265 -9.99099,4.880413 -17.93314,13.17255 -28.34989,17.264408 -10.32493,2.64286 -8.81546,17.73588 2.02772,17.59395 8.198,1.61616 21.07528,-1.97135 27.38081,-7.29916 7.75956,-5.64173 12.5952,-5.50327 21.54859,-7.96727 10.15342,-4.26283 19.59782,-10.463474 30.43557,-12.869504 8.24327,-4.472649 16.36781,-5.137793 25.27562,-7.412013 7.98368,-3.402635 16.53516,-9.753619 25.65295,-9.677838 10.63699,-0.918982 21.29675,-1.94354 31.66002,-4.621759 4.67365,-1.336896 14.51311,-1.067748 15.77027,-5.101663 -7.3471,-6.375204 -17.60591,-7.743984 -26.99286,-7.137784 -10.50048,-2.898497 -20.4343,-0.885134 -31.00972,-0.580581 z"
             style="fill:#892e6e;stroke-width:0.76162267" />
          <path
             id="path2407"
             d="m 541.93388,57.192507 c -14.42799,-0.507074 -22.83461,2.682487 -10.26966,2.389966 6.73053,-0.534443 27.05263,3.21757 24.06693,8.074669 -12.47755,4.875499 -34.02158,7.029824 -51.13844,9.045113 -10.78118,5.637535 -19.4547,8.916779 -30.46781,12.201357 -14.35483,4.013998 -28.33047,10.066728 -41.91289,15.929358 -19.65307,6.19261 -27.61952,14.10515 -42.38729,16.70039 -10.53089,2.27138 -19.26499,-9.44552 -9.81372,-16.52062 -14.0314,2.38508 -20.25953,16.87922 -27.82919,27.24491 -6.71794,11.44605 -8.16355,24.73875 -6.59321,38.02376 1.34747,17.8206 1.72301,17.94743 4.65205,32.09221 3.51079,14.68818 5.46545,25.02102 20.59655,20.67753 14.14924,1.07927 27.50897,-3.829 41.41292,-5.0247 20.14791,-3.07514 40.64619,-5.44103 59.64444,-13.21606 13.97088,-4.05061 25.71947,-13.25938 40.12253,-15.99484 13.67536,-4.66456 27.6155,-8.0283 41.15232,-13.09745 14.84795,-6.27158 31.07147,-7.2251 46.97134,-7.60141 16.79262,-3.29603 28.34329,0.67019 41.36561,-5.63957 7.88922,-5.41532 5.15598,-17.7224 5.10087,-35.63308 -2.75565,-14.37467 -2.66178,-19.55014 -10.4802,-30.199534 -8.46979,-9.873383 -27.03728,-21.141005 -41.20682,-27.296709 -13.48367,-5.754033 -21.51129,-6.800324 -35.74097,-9.420917 l -17.24536,-2.734375 z"
             style="fill:#000000;fill-opacity:1;stroke-width:0.76162267" />
          <path
             id="path2409"
             d="m 506.32798,76.100528 c -9.59701,2.802565 -13.52486,4.80338 -22.33079,9.919113 5.72432,5.574296 6.45045,5.894846 11.72049,10.64598 12.33493,13.077039 22.94323,21.264959 29.81039,38.364739 5.11419,12.34799 10.32806,20.99425 16.18101,26.34827 4.2883,4.24624 6.36992,13.96159 11.32324,17.36056 3.12519,-0.59282 4.2778,-3.02796 5.47383,-3.3579 12.51451,1.45122 14.60667,6.44192 16.06887,1.88187 -2.60494,-3.53438 -0.16655,-5.70808 -2.31677,-9.85052 -6.18961,-12.93784 -9.20883,-18.83049 -15.49003,-26.40935 -4.27075,-5.59653 -9.19081,-10.88206 -11.71582,-19.31502 C 539.81609,108.3944 528.55684,98.08359 519.85141,87.0839 515.20484,83.332511 509.07744,76.448855 506.32798,76.100528 Z"
             style="fill:#ffffff;fill-opacity:1;stroke-width:0.76162267" />
          <path
             id="path2411"
             d="m 541.86094,70.133289 c -5.23872,1.60937 -8.84048,1.290968 -14.2144,2.263455 -3.74985,6.759577 -4.77624,19.30285 -8.29335,26.076239 -2.74949,13.443957 -5.27229,27.086467 -4.054,40.963327 0.20583,16.90903 -4.08773,32.29225 -9.41656,47.50614 -0.0391,0.65886 0.27105,2.57799 0.4519,3.08628 4.13416,-0.0926 7.80811,-2.06312 11.72866,-3.28845 3.65382,-1.16671 6.51228,-1.7861 9.82134,-3.01639 1.61078,-1.97577 2.55564,-5.47343 2.28357,-8.9691 1.43958,-11.85967 6.64922,-23.1429 5.56784,-35.44678 -1.13634,-18.41384 3.70089,-36.44471 9.30109,-53.741095 5.89404,-19.120392 4.37196,-16.775077 -3.17609,-15.433626 z"
             style="fill:#892e6e;fill-opacity:1;stroke-width:0.76162267" />
          <path
             id="path2413"
             d="m 514.97847,132.52994 c -4.60112,-6.2235 -3.58127,-18.72473 5.41959,-20.01229 6.15836,-0.72345 11.32678,-5.09939 17.59374,-4.93142 9.93963,0.0563 15.85851,14.29689 8.46715,21.20949 -4.3496,4.99131 -11.40266,2.06371 -16.7087,4.50733 -3.99746,2.71403 -10.64129,5.56307 -14.77178,-0.77311 z"
             style="fill:#eb9900;stroke-width:0.76162267" />
        </g>
      </g>
    </g>
  </g>
  <g
     transform="translate(0,150.22314)"
     style="display:inline"
     id="layer3">
    <path
       style="fill:#eb9900;fill-opacity:1;stroke:#eb9900;stroke-width:1.44628227;stroke-miterlimit:4;stroke-dasharray:none;stroke-opacity:1"
       id="path3854"
       d="m -98.657101,72.1472 -5.763979,-3.119316 -5.83731,2.979843 1.18547,-6.445795 -4.63782,-4.630789 6.49665,-0.864404 2.97097,-5.841828 2.82967,5.911564 6.473992,1.02034 -4.747815,4.517952 z"
       transform="matrix(1.3566845,0.10442633,-0.10106889,1.4017529,210.86084,-134.93924)" />
    <path
       transform="matrix(1.3032621,-0.40324143,0.39027663,1.3465558,202.57324,-192.42901)"
       d="m -98.657101,72.1472 -5.763979,-3.119316 -5.83731,2.979843 1.18547,-6.445795 -4.63782,-4.630789 6.49665,-0.864404 2.97097,-5.841828 2.82967,5.911564 6.473992,1.02034 -4.747815,4.517952 z"
       id="path3856"
       style="fill:#eb9900;fill-opacity:1;stroke:#eb9900;stroke-width:1.44628227;stroke-miterlimit:4;stroke-dasharray:none;stroke-opacity:1" />
    <path
       style="fill:#000000;fill-opacity:1;stroke:#eb9900;stroke-width:1.44628227;stroke-miterlimit:4;stroke-dasharray:none;stroke-opacity:1"
       id="path3858"
       d="m -98.657101,72.1472 -5.763979,-3.119316 -5.83731,2.979843 1.18547,-6.445795 -4.63782,-4.630789 6.49665,-0.864404 2.97097,-5.841828 2.82967,5.911564 6.473992,1.02034 -4.747815,4.517952 z"
       transform="matrix(1.3566845,0.10442633,-0.10106889,1.4017529,265.3765,-150.88075)" />
    <path
       transform="matrix(1.327531,-0.30731856,0.29743782,1.3716308,262.92635,-200.81608)"
       d="m -98.657101,72.1472 -5.763979,-3.119316 -5.83731,2.979843 1.18547,-6.445795 -4.63782,-4.630789 6.49665,-0.864404 2.97097,-5.841828 2.82967,5.911564 6.473992,1.02034 -4.747815,4.517952 z"
       id="path3860"
       style="fill:#ef9900;fill-opacity:1;stroke:#ef9900;stroke-width:1.44628239;stroke-miterlimit:4;stroke-dasharray:none;stroke-opacity:1" />
    <text
       transform="matrix(0.99811708,-0.0702519,0.06133762,1.1431747,-48.000004,-48.166395)"
       y="-52.999542"
       x="-91.978989"
       id="text832"
       style="font-style:normal;font-variant:normal;font-weight:normal;font-stretch:normal;font-size:48px;line-height:1.25;font-family:Chilanka;-inkscape-font-specification:Chilanka;letter-spacing:0px;word-spacing:0px;fill:#000000;fill-opacity:1;stroke:none;stroke-width:0.93440348"
       xml:space="preserve"><textPath
         style="font-size:48px;stroke-width:0.93440348"
         id="textPath836"
         xlink:href="#path834">Louvain-li-nux</textPath></text>
    <path
       id="path834"
       d="m 54.162588,220.81918 c 0,0 40.4375,59.07242 143.594392,59.07242 103.1569,0 170.00257,-57.40842 170.00257,-57.40842"
       style="fill:none;stroke:none;stroke-width:0.99999994px;stroke-linecap:butt;stroke-linejoin:miter;stroke-opacity:1" />
  </g>
</svg>
